<svg width="500" height="400" viewBox="0 0 500 400" fill="none" xmlns="http://www.w3.org/2000/svg">
  <rect width="500" height="400" rx="20" fill="#E6F0FF"/>
  <circle cx="250" cy="200" r="100" fill="#0066CC" fill-opacity="0.2"/>
  <path d="M200 150C200 139.954 208.954 131 219 131H281C291.046 131 300 139.954 300 150V250C300 260.046 291.046 269 281 269H219C208.954 269 200 260.046 200 250V150Z" fill="#0066CC"/>
  <path d="M220 170C220 164.477 224.477 160 230 160H270C275.523 160 280 164.477 280 170V230C280 235.523 275.523 240 270 240H230C224.477 240 220 235.523 220 230V170Z" fill="white"/>
  <rect x="230" y="180" width="40" height="5" rx="2.5" fill="#0066CC"/>
  <rect x="230" y="195" width="40" height="5" rx="2.5" fill="#0066CC"/>
  <rect x="230" y="210" width="30" height="5" rx="2.5" fill="#0066CC"/>
  <circle cx="350" cy="150" r="50" fill="#0066CC" fill-opacity="0.3"/>
  <circle cx="150" cy="250" r="70" fill="#0066CC" fill-opacity="0.1"/>
</svg> 